<svg id="Layer_1" data-name="Layer 1" xmlns="http://www.w3.org/2000/svg" xmlns:xlink="http://www.w3.org/1999/xlink" viewBox="0 0 504 195"><defs><style>.cls-1{fill:#fff;}.cls-1,.cls-4{fill-rule:evenodd;}.cls-2{fill:none;}.cls-3{clip-path:url(#clip-path);}.cls-4{fill:#41cbd3;}.cls-5{mask:url(#mask);}.cls-6{opacity:0.5;}.cls-7{fill:url(#linear-gradient);}.cls-8{fill:url(#linear-gradient-2);}.cls-9{fill:url(#linear-gradient-3);}.cls-10{fill:url(#linear-gradient-4);}.cls-11{fill:url(#linear-gradient-5);}.cls-12{fill:url(#linear-gradient-6);}.cls-13{fill:url(#linear-gradient-7);}.cls-14{fill:url(#linear-gradient-8);}.cls-15{fill:url(#linear-gradient-9);}.cls-16{fill:url(#linear-gradient-10);}.cls-17{fill:url(#linear-gradient-11);}.cls-18{fill:url(#linear-gradient-12);}.cls-19{fill:url(#linear-gradient-13);}.cls-20{fill:url(#linear-gradient-14);}.cls-21{fill:url(#linear-gradient-15);}.cls-22{fill:url(#linear-gradient-16);}.cls-23{fill:url(#linear-gradient-17);}.cls-24{fill:url(#linear-gradient-18);}.cls-25{fill:url(#linear-gradient-19);}.cls-26{fill:url(#linear-gradient-20);}.cls-27{fill:url(#linear-gradient-21);}.cls-28{fill:url(#linear-gradient-22);}.cls-29{fill:url(#linear-gradient-23);}.cls-30{fill:url(#linear-gradient-24);}.cls-31{fill:url(#linear-gradient-25);}.cls-32{fill:url(#linear-gradient-26);}.cls-33{fill:url(#linear-gradient-27);}.cls-34{fill:url(#linear-gradient-28);}.cls-35{fill:url(#linear-gradient-29);}.cls-36{fill:url(#linear-gradient-30);}.cls-37{fill:url(#linear-gradient-31);}.cls-38{fill:url(#linear-gradient-32);}.cls-39{fill:url(#linear-gradient-33);}.cls-40{fill:url(#linear-gradient-34);}.cls-41{fill:url(#linear-gradient-35);}.cls-42{fill:url(#linear-gradient-36);}.cls-43{fill:url(#linear-gradient-37);}.cls-44{fill:url(#linear-gradient-38);}.cls-45{fill:url(#linear-gradient-39);}.cls-46{fill:url(#linear-gradient-40);}.cls-47{fill:url(#linear-gradient-41);}.cls-48{fill:url(#linear-gradient-42);}.cls-49{fill:url(#linear-gradient-43);}.cls-50{fill:url(#linear-gradient-44);}.cls-51{fill:url(#linear-gradient-45);}.cls-52{fill:url(#linear-gradient-46);}.cls-53{fill:url(#linear-gradient-47);}.cls-54{fill:url(#linear-gradient-48);}</style><clipPath id="clip-path" transform="translate(-284.18 -41.49)"><rect id="Rectangle_3" data-name="Rectangle 3" class="cls-2" x="281.36" y="37.42" width="504" height="195"/></clipPath><mask id="mask" x="0" y="0" width="504" height="195" maskUnits="userSpaceOnUse"><g transform="translate(-284.18 -41.49)"><g id="b"><path id="a" class="cls-1" d="M299.08,46.76h474.2V231.22H299.08Z"/></g></g></mask><linearGradient id="linear-gradient" x1="-540.55" y1="983.28" x2="-540.55" y2="981.93" gradientTransform="matrix(0, 29.6, 29.67, 0, -29070.14, 16019.71)" gradientUnits="userSpaceOnUse"><stop offset="0" stop-color="#0989b4" stop-opacity="0"/><stop offset="1" stop-color="#53ffee"/></linearGradient><linearGradient id="linear-gradient-2" x1="-575.06" y1="960.1" x2="-575.06" y2="958.79" gradientTransform="matrix(-29.67, 0, 0, 29.6, -17040.91, -28380.29)" xlink:href="#linear-gradient"/><linearGradient id="linear-gradient-3" x1="-516.3" y1="948.2" x2="-516.3" y2="946.89" gradientTransform="matrix(29.67, 0, 0, -29.6, 15523.15, 28066.91)" xlink:href="#linear-gradient"/><linearGradient id="linear-gradient-4" x1="-552.45" y1="924.51" x2="-552.45" y2="923.17" gradientTransform="matrix(0, -29.6, -29.67, 0, 27552.38, -16333.09)" xlink:href="#linear-gradient"/><linearGradient id="linear-gradient-5" x1="-540.55" y1="985.46" x2="-540.55" y2="984.12" gradientTransform="matrix(0, 29.6, 29.67, 0, -28887.56, 16019.71)" xlink:href="#linear-gradient"/><linearGradient id="linear-gradient-6" x1="-577.25" y1="960.1" x2="-577.25" y2="958.79" gradientTransform="matrix(-29.67, 0, 0, 29.6, -16858.33, -28380.29)" xlink:href="#linear-gradient"/><linearGradient id="linear-gradient-7" x1="-514.11" y1="948.2" x2="-514.11" y2="946.89" gradientTransform="matrix(29.67, 0, 0, -29.6, 15705.73, 28066.91)" xlink:href="#linear-gradient"/><linearGradient id="linear-gradient-8" x1="-552.45" y1="922.33" x2="-552.45" y2="920.98" gradientTransform="matrix(0, -29.6, -29.67, 0, 27734.96, -16333.09)" xlink:href="#linear-gradient"/><linearGradient id="linear-gradient-9" x1="-539.52" y1="983.28" x2="-539.52" y2="981.93" gradientTransform="matrix(0, 29.6, 29.67, 0, -29070.14, 16115.34)" xlink:href="#linear-gradient"/><linearGradient id="linear-gradient-10" x1="-575.06" y1="961.13" x2="-575.06" y2="959.82" gradientTransform="matrix(-29.67, 0, 0, 29.6, -17040.91, -28284.66)" xlink:href="#linear-gradient"/><linearGradient id="linear-gradient-11" x1="-516.3" y1="947.17" x2="-516.3" y2="945.86" gradientTransform="matrix(29.67, 0, 0, -29.6, 15523.15, 28162.54)" xlink:href="#linear-gradient"/><linearGradient id="linear-gradient-12" x1="-553.48" y1="924.51" x2="-553.48" y2="923.17" gradientTransform="matrix(0, -29.6, -29.67, 0, 27552.38, -16237.46)" xlink:href="#linear-gradient"/><linearGradient id="linear-gradient-13" x1="-539.52" y1="985.46" x2="-539.52" y2="984.12" gradientTransform="matrix(0, 29.6, 29.67, 0, -28887.56, 16115.34)" xlink:href="#linear-gradient"/><linearGradient id="linear-gradient-14" x1="-577.25" y1="961.13" x2="-577.25" y2="959.82" gradientTransform="matrix(-29.67, 0, 0, 29.6, -16858.33, -28284.66)" xlink:href="#linear-gradient"/><linearGradient id="linear-gradient-15" x1="-514.11" y1="947.17" x2="-514.11" y2="945.86" gradientTransform="matrix(29.67, 0, 0, -29.6, 15705.73, 28162.54)" xlink:href="#linear-gradient"/><linearGradient id="linear-gradient-16" x1="-553.48" y1="922.33" x2="-553.48" y2="920.98" gradientTransform="matrix(0, -29.6, -29.67, 0, 27734.96, -16237.46)" xlink:href="#linear-gradient"/><linearGradient id="linear-gradient-17" x1="-552.97" y1="925.06" x2="-552.97" y2="923.71" gradientTransform="matrix(0, -29.6, -29.67, 0, 27506.74, -16285.28)" xlink:href="#linear-gradient"/><linearGradient id="linear-gradient-18" x1="-517.94" y1="947.68" x2="-517.94" y2="946.38" gradientTransform="matrix(29.67, 0, 0, -29.6, 15386.22, 28114.72)" xlink:href="#linear-gradient"/><linearGradient id="linear-gradient-19" x1="-516.3" y1="947.68" x2="-516.3" y2="946.38" gradientTransform="matrix(29.67, 0, 0, -29.6, 15523.15, 28114.72)" xlink:href="#linear-gradient"/><linearGradient id="linear-gradient-20" x1="-540.03" y1="983.82" x2="-540.03" y2="982.48" gradientTransform="matrix(0, 29.6, 29.67, 0, -29024.49, 16067.52)" xlink:href="#linear-gradient"/><linearGradient id="linear-gradient-21" x1="-552.97" y1="922.87" x2="-552.97" y2="921.53" gradientTransform="matrix(0, -29.6, -29.67, 0, 27689.31, -16285.28)" xlink:href="#linear-gradient"/><linearGradient id="linear-gradient-22" x1="-515.75" y1="947.68" x2="-515.75" y2="946.38" gradientTransform="matrix(29.67, 0, 0, -29.6, 15568.79, 28114.72)" xlink:href="#linear-gradient"/><linearGradient id="linear-gradient-23" x1="-514.11" y1="947.68" x2="-514.11" y2="946.38" gradientTransform="matrix(29.67, 0, 0, -29.6, 15705.73, 28114.72)" xlink:href="#linear-gradient"/><linearGradient id="linear-gradient-24" x1="-540.03" y1="986.01" x2="-540.03" y2="984.66" gradientTransform="matrix(0, 29.6, 29.67, 0, -28841.92, 16067.52)" xlink:href="#linear-gradient"/><linearGradient id="linear-gradient-25" x1="-540.3" y1="983.55" x2="-540.3" y2="982.21" gradientTransform="matrix(0, 29.6, 29.67, 0, -29047.31, 16042.48)" xlink:href="#linear-gradient"/><linearGradient id="linear-gradient-26" x1="-575.34" y1="960.35" x2="-575.34" y2="959.04" gradientTransform="matrix(-29.67, 0, 0, 29.6, -17018.08, -28357.52)" xlink:href="#linear-gradient"/><linearGradient id="linear-gradient-27" x1="-516.03" y1="947.95" x2="-516.03" y2="946.64" gradientTransform="matrix(29.67, 0, 0, -29.6, 15545.97, 28089.68)" xlink:href="#linear-gradient"/><linearGradient id="linear-gradient-28" x1="-552.7" y1="924.24" x2="-552.7" y2="922.89" gradientTransform="matrix(0, -29.6, -29.67, 0, 27575.2, -16310.32)" xlink:href="#linear-gradient"/><linearGradient id="linear-gradient-29" x1="-540.3" y1="985.73" x2="-540.3" y2="984.39" gradientTransform="matrix(0, 29.6, 29.67, 0, -28864.74, 16042.48)" xlink:href="#linear-gradient"/><linearGradient id="linear-gradient-30" x1="-577.52" y1="960.35" x2="-577.52" y2="959.04" gradientTransform="matrix(-29.67, 0, 0, 29.6, -16835.51, -28357.52)" xlink:href="#linear-gradient"/><linearGradient id="linear-gradient-31" x1="-513.84" y1="947.95" x2="-513.84" y2="946.64" gradientTransform="matrix(29.67, 0, 0, -29.6, 15728.55, 28089.68)" xlink:href="#linear-gradient"/><linearGradient id="linear-gradient-32" x1="-552.7" y1="922.05" x2="-552.7" y2="920.71" gradientTransform="matrix(0, -29.6, -29.67, 0, 27757.78, -16310.32)" xlink:href="#linear-gradient"/><linearGradient id="linear-gradient-33" x1="-539.28" y1="983.55" x2="-539.28" y2="982.21" gradientTransform="matrix(0, 29.6, 29.67, 0, -29047.31, 16138.11)" xlink:href="#linear-gradient"/><linearGradient id="linear-gradient-34" x1="-575.34" y1="961.37" x2="-575.34" y2="960.06" gradientTransform="matrix(-29.67, 0, 0, 29.6, -17018.08, -28261.89)" xlink:href="#linear-gradient"/><linearGradient id="linear-gradient-35" x1="-516.03" y1="946.93" x2="-516.03" y2="945.62" gradientTransform="matrix(29.67, 0, 0, -29.6, 15545.97, 28185.31)" xlink:href="#linear-gradient"/><linearGradient id="linear-gradient-36" x1="-553.72" y1="924.24" x2="-553.72" y2="922.89" gradientTransform="matrix(0, -29.6, -29.67, 0, 27575.2, -16214.69)" xlink:href="#linear-gradient"/><linearGradient id="linear-gradient-37" x1="-539.28" y1="985.73" x2="-539.28" y2="984.39" gradientTransform="matrix(0, 29.6, 29.67, 0, -28864.74, 16138.11)" xlink:href="#linear-gradient"/><linearGradient id="linear-gradient-38" x1="-577.52" y1="961.37" x2="-577.52" y2="960.06" gradientTransform="matrix(-29.67, 0, 0, 29.6, -16835.51, -28261.89)" xlink:href="#linear-gradient"/><linearGradient id="linear-gradient-39" x1="-513.84" y1="946.93" x2="-513.84" y2="945.62" gradientTransform="matrix(29.67, 0, 0, -29.6, 15728.55, 28185.31)" xlink:href="#linear-gradient"/><linearGradient id="linear-gradient-40" x1="-553.72" y1="922.05" x2="-553.72" y2="920.71" gradientTransform="matrix(0, -29.6, -29.67, 0, 27757.78, -16214.69)" xlink:href="#linear-gradient"/><linearGradient id="linear-gradient-41" x1="-553.21" y1="924.78" x2="-553.21" y2="923.44" gradientTransform="matrix(0, -29.6, -29.67, 0, 27529.56, -16262.51)" xlink:href="#linear-gradient"/><linearGradient id="linear-gradient-42" x1="-517.66" y1="947.44" x2="-517.66" y2="946.13" gradientTransform="matrix(29.67, 0, 0, -29.6, 15409.04, 28137.49)" xlink:href="#linear-gradient"/><linearGradient id="linear-gradient-43" x1="-516.03" y1="947.44" x2="-516.03" y2="946.13" gradientTransform="matrix(29.67, 0, 0, -29.6, 15545.97, 28137.49)" xlink:href="#linear-gradient"/><linearGradient id="linear-gradient-44" x1="-539.79" y1="984.1" x2="-539.79" y2="982.75" gradientTransform="matrix(0, 29.6, 29.67, 0, -29001.67, 16090.29)" xlink:href="#linear-gradient"/><linearGradient id="linear-gradient-45" x1="-553.21" y1="922.6" x2="-553.21" y2="921.26" gradientTransform="matrix(0, -29.6, -29.67, 0, 27712.14, -16262.51)" xlink:href="#linear-gradient"/><linearGradient id="linear-gradient-46" x1="-515.48" y1="947.44" x2="-515.48" y2="946.13" gradientTransform="matrix(29.67, 0, 0, -29.6, 15591.62, 28137.49)" xlink:href="#linear-gradient"/><linearGradient id="linear-gradient-47" x1="-513.84" y1="947.44" x2="-513.84" y2="946.13" gradientTransform="matrix(29.67, 0, 0, -29.6, 15728.55, 28137.49)" xlink:href="#linear-gradient"/><linearGradient id="linear-gradient-48" x1="-539.79" y1="986.28" x2="-539.79" y2="984.94" gradientTransform="matrix(0, 29.6, 29.67, 0, -28819.09, 16090.29)" xlink:href="#linear-gradient"/></defs><g class="cls-3"><path id="a-2" data-name="a" class="cls-4" d="M299.08,46.76h474.2V231.22H299.08Z" transform="translate(-284.18 -41.49)"/><g class="cls-5"><g class="cls-6"><ellipse class="cls-7" cx="81.94" cy="19.5" rx="20.1" ry="19.5"/><ellipse class="cls-8" cx="20.1" cy="19.5" rx="20.1" ry="19.5"/><ellipse class="cls-9" cx="205.62" cy="19.5" rx="20.1" ry="19.5"/><ellipse class="cls-10" cx="143.78" cy="19.5" rx="20.1" ry="19.5"/><ellipse class="cls-11" cx="329.3" cy="19.5" rx="20.1" ry="19.5"/><ellipse class="cls-12" cx="267.46" cy="19.5" rx="20.1" ry="19.5"/><ellipse class="cls-13" cx="452.98" cy="19.5" rx="20.1" ry="19.5"/><ellipse class="cls-14" cx="391.14" cy="19.5" rx="20.1" ry="19.5"/><ellipse class="cls-15" cx="81.94" cy="145.5" rx="20.1" ry="19.5"/><ellipse class="cls-16" cx="20.1" cy="145.5" rx="20.1" ry="19.5"/><ellipse class="cls-17" cx="205.62" cy="145.5" rx="20.1" ry="19.5"/><ellipse class="cls-18" cx="143.78" cy="145.5" rx="20.1" ry="19.5"/><ellipse class="cls-19" cx="329.3" cy="145.5" rx="20.1" ry="19.5"/><ellipse class="cls-20" cx="267.46" cy="145.5" rx="20.1" ry="19.5"/><ellipse class="cls-21" cx="452.98" cy="145.5" rx="20.1" ry="19.5"/><ellipse class="cls-22" cx="391.14" cy="145.5" rx="20.1" ry="19.5"/><ellipse class="cls-23" cx="81.94" cy="82.5" rx="20.1" ry="19.5"/><ellipse class="cls-24" cx="20.1" cy="82.5" rx="20.1" ry="19.5"/><ellipse class="cls-25" cx="205.62" cy="82.5" rx="20.1" ry="19.5"/><ellipse class="cls-26" cx="143.78" cy="82.5" rx="20.1" ry="19.5"/><ellipse class="cls-27" cx="329.3" cy="82.5" rx="20.1" ry="19.5"/><ellipse class="cls-28" cx="267.46" cy="82.5" rx="20.1" ry="19.5"/><ellipse class="cls-29" cx="452.98" cy="82.5" rx="20.1" ry="19.5"/><ellipse class="cls-30" cx="391.14" cy="82.5" rx="20.1" ry="19.5"/><ellipse class="cls-31" cx="112.86" cy="49.5" rx="20.1" ry="19.5"/><ellipse class="cls-32" cx="51.02" cy="49.5" rx="20.1" ry="19.5"/><ellipse class="cls-33" cx="236.54" cy="49.5" rx="20.1" ry="19.5"/><ellipse class="cls-34" cx="174.7" cy="49.5" rx="20.1" ry="19.5"/><ellipse class="cls-35" cx="360.22" cy="49.5" rx="20.1" ry="19.5"/><ellipse class="cls-36" cx="298.38" cy="49.5" rx="20.1" ry="19.5"/><ellipse class="cls-37" cx="483.9" cy="49.5" rx="20.1" ry="19.5"/><ellipse class="cls-38" cx="422.06" cy="49.5" rx="20.1" ry="19.5"/><ellipse class="cls-39" cx="112.86" cy="175.5" rx="20.1" ry="19.5"/><ellipse class="cls-40" cx="51.02" cy="175.5" rx="20.1" ry="19.5"/><ellipse class="cls-41" cx="236.54" cy="175.5" rx="20.1" ry="19.5"/><ellipse class="cls-42" cx="174.7" cy="175.5" rx="20.1" ry="19.5"/><ellipse class="cls-43" cx="360.22" cy="175.5" rx="20.1" ry="19.5"/><ellipse class="cls-44" cx="298.38" cy="175.5" rx="20.1" ry="19.5"/><ellipse class="cls-45" cx="483.9" cy="175.5" rx="20.1" ry="19.5"/><ellipse class="cls-46" cx="422.06" cy="175.5" rx="20.1" ry="19.5"/><ellipse class="cls-47" cx="112.86" cy="112.5" rx="20.1" ry="19.5"/><ellipse class="cls-48" cx="51.02" cy="112.5" rx="20.1" ry="19.5"/><ellipse class="cls-49" cx="236.54" cy="112.5" rx="20.1" ry="19.5"/><ellipse class="cls-50" cx="174.7" cy="112.5" rx="20.1" ry="19.5"/><ellipse class="cls-51" cx="360.22" cy="112.5" rx="20.1" ry="19.5"/><ellipse class="cls-52" cx="298.38" cy="112.5" rx="20.1" ry="19.5"/><ellipse class="cls-53" cx="483.9" cy="112.5" rx="20.1" ry="19.5"/><ellipse class="cls-54" cx="422.06" cy="112.5" rx="20.1" ry="19.5"/></g></g></g></svg>